<svg id="Layer_1" data-name="Layer 1" xmlns="http://www.w3.org/2000/svg" viewBox="0 0 168.75 150"><defs><style>.cls-1{fill:#555555;}</style></defs><title>graphics</title><path class="cls-1" d="M377,320.2A14,14,0,0,1,391,334.26v84.38A14,14,0,0,1,377,432.7H320.71l7,28.13h21.1a4.49,4.49,0,0,1,4.68,4.68,4.5,4.5,0,0,1-4.68,4.69H264.46a4.69,4.69,0,1,1,0-9.37h21.1l7-28.13H236.34a14,14,0,0,1-14.07-14.06V334.26a14,14,0,0,1,14.07-14.06Zm4.69,98.44V334.26a4.5,4.5,0,0,0-4.69-4.68H236.34a4.5,4.5,0,0,0-4.69,4.68v84.38a4.52,4.52,0,0,0,4.69,4.69H377a4.52,4.52,0,0,0,4.69-4.69Zm-86.43,42.19h22.86l-4.69-18.75H299.91Z" transform="translate(-222.27 -320.2)"/><circle class="cls-1" cx="54.81" cy="38.93" r="18"/><path class="cls-1" d="M244.18,408.77l13.9-15a2,2,0,0,1,2.94,0l13.69,14.82a2,2,0,0,0,2.93,0l44.16-47.82a2,2,0,0,1,2.94,0l44.38,48a2,2,0,0,1-1.47,3.36h-122A2,2,0,0,1,244.18,408.77Z" transform="translate(-222.27 -320.2)"/></svg>