<svg id="Layer_1" data-name="Layer 1" xmlns="http://www.w3.org/2000/svg" viewBox="0 0 100 70"><defs><style>.cls-1{fill:#555555;}</style></defs><title>software-01</title><path class="cls-1" d="M345.72,393a20.37,20.37,0,0,1,7.74,7.43,19.41,19.41,0,0,1,2.89,10.23,19.86,19.86,0,0,1-2.66,10.08,19.41,19.41,0,0,1-7.27,7.26,19.82,19.82,0,0,1-10.07,2.66h-57.5a21.69,21.69,0,0,1-11.25-3.05,22.88,22.88,0,0,1-8.21-8.2,21.74,21.74,0,0,1-3-11.25,22.11,22.11,0,0,1,4.14-13.05,21.8,21.8,0,0,1,10.86-8.2,26.64,26.64,0,0,1,4.06-13.2,27.38,27.38,0,0,1,10-9.53,27.63,27.63,0,0,1,26.25-.4,26.6,26.6,0,0,1,9.69,8.6,17.38,17.38,0,0,1,16.25.62,17.55,17.55,0,0,1,8.75,15.16A18.52,18.52,0,0,1,345.72,393Zm-9.37,32.66a15,15,0,0,0,11.4-24.77,14.94,14.94,0,0,0-9.06-5.07,11.82,11.82,0,0,0,2.66-7.66,12,12,0,0,0-3.68-8.83,12.19,12.19,0,0,0-9-3.67,11.88,11.88,0,0,0-9.06,4.06,22.18,22.18,0,0,0-8.13-10.15,22.35,22.35,0,0,0-23.9-.86,22.88,22.88,0,0,0-8.21,8.2,21.74,21.74,0,0,0-3,11.25,22.44,22.44,0,0,0,.15,2.66,17.34,17.34,0,0,0-10.78,5.86,16.7,16.7,0,0,0-4.37,11.48,17.49,17.49,0,0,0,17.5,17.5Z" transform="translate(-256.35 -360.68)"/><path class="cls-1" d="M327.77,400,318,391.3l-.1-.08a1.91,1.91,0,0,0-2.56.15L314,392.85a1.84,1.84,0,0,0-.46,1.72,2,2,0,0,0,.51.95l6.86,5.84-7,5.9-.15.3a2.51,2.51,0,0,0-.22.59,1.85,1.85,0,0,0,.48,1.75l1.12,1.25a1.81,1.81,0,0,0,1.51.75,1.88,1.88,0,0,0,1.31-.48l9.73-8.58.07-.07a1.92,1.92,0,0,0,0-2.81Z" transform="translate(-256.35 -360.68)"/><path class="cls-1" d="M299.14,408.15a3.07,3.07,0,0,0-.22-.6l-.15-.29-7-5.9,6.76-5.75.09-.08a2,2,0,0,0,.53-1,1.89,1.89,0,0,0-.47-1.72l-1.19-1.39-.08-.09a1.85,1.85,0,0,0-1.37-.54,1.93,1.93,0,0,0-1.32.48L285,399.9l-.08.07a1.93,1.93,0,0,0,0,2.8l9.81,8.65a1.93,1.93,0,0,0,1.32.48,1.86,1.86,0,0,0,1.5-.75l1.12-1.24A1.86,1.86,0,0,0,299.14,408.15Z" transform="translate(-256.35 -360.68)"/><path class="cls-1" d="M314,385.27v-.22a2.35,2.35,0,0,0-.23-1.05,2,2,0,0,0-.92-.92l-.14-.07-2.05-.58h-.22a2.33,2.33,0,0,0-1.06.24,2,2,0,0,0-.91.91l-.07.14-9.59,33.52-.06.22v.22a2.4,2.4,0,0,0,.24,1.07,2,2,0,0,0,1.19,1l2,.56h.22a2.13,2.13,0,0,0,1-.24,2,2,0,0,0,.92-.92l.06-.13,9.59-33.52Z" transform="translate(-256.35 -360.68)"/></svg>