<svg id="Layer_1" data-name="Layer 1" xmlns="http://www.w3.org/2000/svg" viewBox="0 0 182.56 122.49"><defs><style>.cls-1{fill:#555555;}</style></defs><title>memory</title><circle class="cls-1" cx="149.67" cy="32.58" r="8.5"/><circle class="cls-1" cx="149.67" cy="89.91" r="8.5"/><path class="cls-1" d="M384.48,334.72H227.37a12.73,12.73,0,0,0-12.72,12.72v97.05a12.73,12.73,0,0,0,12.72,12.72H384.48a12.73,12.73,0,0,0,12.72-12.72V347.44A12.73,12.73,0,0,0,384.48,334.72Zm-157.11,9h91.14c-8,27.76-25.75,46.12-53,54.62a113.58,113.58,0,0,1-41.9,4.48V347.44A3.73,3.73,0,0,1,227.37,343.72ZM388.2,444.49a3.73,3.73,0,0,1-3.72,3.72H227.37a3.73,3.73,0,0,1-3.72-3.72V411.86c1.78.16,4.85.36,8.86.36a121.65,121.65,0,0,0,35.41-5.2c21.67-6.69,49.34-23.13,59.92-63.3h56.64a3.73,3.73,0,0,1,3.72,3.72Z" transform="translate(-214.65 -334.72)"/></svg>