<svg id="Layer_1" data-name="Layer 1" xmlns="http://www.w3.org/2000/svg" viewBox="0 0 40 40"><defs><style>.cls-1{fill:#555555;}</style></defs><title>processors</title><path class="cls-1" d="M560.92,597H539.54a3.26,3.26,0,0,1-3.25-3.25V572.35a3.26,3.26,0,0,1,3.25-3.26h21.38a3.26,3.26,0,0,1,3.25,3.26v21.37A3.26,3.26,0,0,1,560.92,597Zm-21.38-25.29a.67.67,0,0,0-.66.67v21.37a.67.67,0,0,0,.66.66h21.38a.67.67,0,0,0,.66-.66V572.35a.67.67,0,0,0-.66-.67Z" transform="translate(-530.17 -562.92)"/><rect class="cls-1" x="8.09" width="3.94" height="3.94" rx="0.35"/><rect class="cls-1" x="18.09" width="3.94" height="3.94" rx="0.35"/><rect class="cls-1" x="28.1" width="3.94" height="3.94" rx="0.35"/><rect class="cls-1" x="8.09" y="36.06" width="3.94" height="3.94" rx="0.35"/><rect class="cls-1" x="18.09" y="36.06" width="3.94" height="3.94" rx="0.35"/><rect class="cls-1" x="28.1" y="36.06" width="3.94" height="3.94" rx="0.35"/><rect class="cls-1" x="566.23" y="571.06" width="3.94" height="3.94" rx="0.35" transform="translate(611.06 -558.09) rotate(90)"/><rect class="cls-1" x="566.23" y="581.06" width="3.94" height="3.94" rx="0.35" transform="translate(621.06 -548.08) rotate(90)"/><rect class="cls-1" x="566.23" y="591.06" width="3.94" height="3.94" rx="0.35" transform="translate(631.06 -538.08) rotate(90)"/><rect class="cls-1" x="530.17" y="571.06" width="3.94" height="3.94" rx="0.35" transform="translate(575 -522.02) rotate(90)"/><rect class="cls-1" x="530.17" y="581.06" width="3.94" height="3.94" rx="0.35" transform="translate(585 -512.02) rotate(90)"/><rect class="cls-1" x="530.17" y="591.06" width="3.94" height="3.94" rx="0.35" transform="translate(595 -502.02) rotate(90)"/></svg>