<svg id="Layer_1" data-name="Layer 1" xmlns="http://www.w3.org/2000/svg" viewBox="0 0 206.19 148.28"><defs><style>.cls-1{fill:#555555;}</style></defs><title>minipcs</title><path class="cls-1" d="M307.11,410.65a5.15,5.15,0,0,1-2.2-.49l-96.38-44.54a5.41,5.41,0,0,1,.48-10l96.68-33.42a5.21,5.21,0,0,1,3.42,0l95.65,33.42a5.41,5.41,0,0,1,.49,10h0l-95.93,44.55A5.15,5.15,0,0,1,307.11,410.65Zm1.57-8.66h0Zm-88.25-40.78,86.67,40.05,86.29-40.06-86-30.05Z" transform="translate(-203.65 -321.93)"/><path class="cls-1" d="M306.87,470.21a10.59,10.59,0,0,1-4.4-1l-92.22-42.72a11.75,11.75,0,0,1-6.6-10.73v-54a5.36,5.36,0,0,1,2.47-4.55,5.22,5.22,0,0,1,5-.34l96.2,44.45,95-44.43a5.22,5.22,0,0,1,5,.32,5.37,5.37,0,0,1,2.48,4.56v53.87a11.77,11.77,0,0,1-6.58,10.73l-92,42.85A10.49,10.49,0,0,1,306.87,470.21ZM212.65,367.5v48.29a2.82,2.82,0,0,0,1.38,2.56l92.22,42.72a1.47,1.47,0,0,0,1.23,0l92-42.85a2.84,2.84,0,0,0,1.38-2.57V367.53l-93.49,43.73Z" transform="translate(-203.65 -321.93)"/><path class="cls-1" d="M392.33,401l-52.89,24.78c-2.88,1.35-6.06-1-6.06-4.45v-1a4.86,4.86,0,0,1,2.67-4.45l52.88-24.78c2.86-1.34,6,1,6.06,4.42v1A4.85,4.85,0,0,1,392.33,401Z" transform="translate(-203.65 -321.93)"/><path class="cls-1" d="M325.54,432.07h0c-2.88,1.35-6.07-1-6-4.49v-1a4.88,4.88,0,0,1,2.67-4.42h0c2.87-1.35,6,1,6.05,4.44v1A4.86,4.86,0,0,1,325.54,432.07Z" transform="translate(-203.65 -321.93)"/></svg>