<?xml version="1.0" encoding="utf-8"?>
<!-- Generator: Adobe Illustrator 25.0.1, SVG Export Plug-In . SVG Version: 6.00 Build 0)  -->
<svg version="1.1" id="Layer_1" xmlns="http://www.w3.org/2000/svg" xmlns:xlink="http://www.w3.org/1999/xlink" x="0px" y="0px"
	 viewBox="0 0 16 16" style="enable-background:new 0 0 16 16;" xml:space="preserve">
<style type="text/css">
	.st0{fill-rule:evenodd;clip-rule:evenodd;fill:#808080;}
</style>
<g id="icon-chat-single">
	<g id="Group-5">
		<g transform="translate(0.000000, 2.000000)">
			<polygon id="Fill-1" class="st0" points="0,6.7 1.4,6.7 1.4,5.3 0,5.3 			"/>
			<path id="Fill-2" class="st0" d="M14.8,3c-0.7-0.9-1.7-1.6-2.9-2.1c-1.2-0.5-2.5-0.8-4-0.8C6.5,0.2,5.2,0.4,4,1
				C2.7,1.5,1.8,2.2,1.1,3C0.7,3.5,0.4,4,0.2,4.6h1.4c0.1-0.2,0.3-0.5,0.4-0.7c0.5-0.7,1.3-1.3,2.2-1.7c1.1-0.5,2.3-0.7,3.6-0.7
				c1.3,0,2.5,0.2,3.6,0.7c0.9,0.4,1.7,1,2.2,1.7c0.5,0.7,0.8,1.3,0.8,2s-0.3,1.3-0.8,2c-0.5,0.7-1.3,1.3-2.2,1.7
				c-1.1,0.5-2.3,0.7-3.6,0.7c-0.9,0-1.8-0.1-2.7-0.4c-0.7,0.4-1.2,0.7-1.6,0.9c-0.7,0.3-1.4,0.5-2.1,0.6c0.4-0.3,0.8-0.7,1.1-1.2
				C3,9.7,3.2,9.3,3.2,9c-0.6-0.4-1-0.8-1.3-1.3c0-0.1-0.1-0.1-0.1-0.2H0.3c0,0.1,0.1,0.2,0.1,0.3C0.8,8.4,1.2,9,1.7,9.5
				C1.6,9.8,1.5,10,1.3,10.2c-0.1,0.1-0.3,0.3-0.6,0.4l-0.1,0.1c-0.2,0.2-0.4,0.3-0.5,0.4C0,11.3,0,11.6,0.1,11.8
				c0.1,0.2,0.2,0.4,0.4,0.5c0.2,0.1,0.4,0.2,0.7,0.2c1.6-0.1,3-0.5,4.3-1.2c0.8,0.2,1.6,0.3,2.5,0.3c1.4,0,2.7-0.3,4-0.8
				c1.2-0.5,2.2-1.2,2.9-2.1c0.7-0.9,1.1-1.8,1.1-2.9C15.8,4.9,15.5,3.9,14.8,3"/>
		</g>
	</g>
</g>
</svg>
