<?xml version="1.0" encoding="utf-8"?>
<!-- Generator: Adobe Illustrator 24.2.1, SVG Export Plug-In . SVG Version: 6.00 Build 0)  -->
<svg version="1.1" xmlns="http://www.w3.org/2000/svg" xmlns:xlink="http://www.w3.org/1999/xlink" x="0px" y="0px"
	 viewBox="0 0 20 20" style="enable-background:new 0 0 20 20;" xml:space="preserve">
<style type="text/css">
	.st0{fill:#0B69B4;}
	.st1{fill:#30C5F4;}
</style>
<g id="Layer_1">
</g>
<g id="icons">
	<g>
		<g>
			<path class="st0" d="M19.5,9.2l-9-9.1c-0.3-0.3-0.7-0.3-0.9,0l-9,9.1c-0.3,0.3-0.3,0.7,0,0.9l1.1,1.1c0.3,0.3,0.7,0.3,0.9,0
				l6-6.2v10.2h2.9V5l6,6.2c0.3,0.3,0.7,0.3,0.9,0l1.1-1.1C19.8,9.9,19.8,9.5,19.5,9.2z"/>
		</g>
		<g>
			<g>
				
					<rect x="8.6" y="17.1" transform="matrix(-1.595028e-10 1 -1 -1.595028e-10 28.5517 8.5517)" class="st1" width="2.9" height="3"/>
			</g>
		</g>
	</g>
</g>
</svg>
