<?xml version="1.0" encoding="utf-8"?>
<!-- Generator: Adobe Illustrator 25.4.1, SVG Export Plug-In . SVG Version: 6.00 Build 0)  -->
<svg version="1.1" id="artwork" xmlns="http://www.w3.org/2000/svg" xmlns:xlink="http://www.w3.org/1999/xlink" x="0px" y="0px"
	 viewBox="0 0 100 100" style="enable-background:new 0 0 100 100;" xml:space="preserve">
<style type="text/css">
	.st0{fill:#FFFFFF;}
</style>
<path class="st0" d="M11,55.1H1.2v-9.8H11V55.1z M37.4,39.7c0.5,0.4,1.1,0.5,1.7,0.4c0.6-0.1,1.1-0.4,1.5-0.8
	c1.7-2.2,3.1-3.8,4.3-4.5c1.4-0.9,3.2-1.4,5.2-1.4s3.9,0.5,5.5,1.6s2.5,2.4,2.5,4c0,1.2-0.5,2.2-1.4,3.2c-0.8,0.7-2.2,1.6-4.1,2.8
	l-0.4,0.2c-2.8,1.6-4.7,3-5.9,4.1c-2.1,2.1-3.1,4.7-3.1,7.7v1.8c0,0.7,0.2,1.2,0.7,1.7s1,0.7,1.7,0.7h9.1c0.7,0,1.2-0.2,1.7-0.7
	s0.7-1,0.7-1.7v-1.2c0-0.9,0.5-1.7,1.4-2.4c0.5-0.5,1.6-1.3,3.1-2.2c3-1.7,5.2-3.3,6.5-4.7c2.1-2.5,3.1-5.5,3.1-9.1
	c0-3.3-1-6.3-2.9-8.9s-4.4-4.7-7.6-6.3c-3.1-1.6-6.3-2.4-9.4-2.4c-4.5,0-8.3,0.9-11.4,2.7c-3.1,1.8-6,4.4-8.5,8
	c-0.4,0.4-0.5,1-0.4,1.7s0.4,1.2,0.9,1.6L37.4,39.7z M50,63.8c-2.2,0-4.2,0.8-5.8,2.5s-2.5,3.6-2.5,5.8c0,2.2,0.8,4.2,2.5,5.8
	c1.6,1.6,3.6,2.5,5.8,2.5s4.2-0.8,5.8-2.5c1.6-1.6,2.5-3.6,2.5-5.8c0-2.2-0.8-4.2-2.5-5.8S52.2,63.8,50,63.8z M25.6,92.4
	C33.1,96.8,41.2,99,50,99s16.9-2.2,24.4-6.6S87.8,82,92.2,74.5c4.4-7.5,6.6-15.7,6.6-24.5s-2.2-17-6.6-24.5
	C87.8,18,81.9,12,74.4,7.6S58.8,1,50,1S33.1,3.2,25.6,7.6S12.2,18,7.8,25.5c-1.9,3.2-3.3,6.6-4.4,10.1h10c0.7-1.8,1.6-3.6,2.6-5.4
	c3.5-6.1,8.3-10.9,14.4-14.4c6-3.6,12.6-5.3,19.7-5.3s13.6,1.8,19.7,5.3c6,3.6,10.8,8.4,14.4,14.4c3.5,6.1,5.3,12.6,5.3,19.8
	c0,7.1-1.8,13.7-5.3,19.8s-8.3,10.9-14.4,14.4c-6,3.6-12.6,5.3-19.7,5.3s-13.6-1.8-19.7-5.3c-6-3.6-10.8-8.4-14.4-14.4
	c-0.9-1.6-1.7-3.2-2.4-4.9h-10c1.1,3.3,2.4,6.5,4.2,9.6C12.2,82,18.1,88,25.6,92.4z M58.3,72.1c0-2.2-0.8-4.2-2.5-5.8
	s-3.6-2.5-5.8-2.5s-4.2,0.8-5.8,2.5s-2.5,3.6-2.5,5.8c0,2.2,0.8,4.2,2.5,5.8c1.6,1.6,3.6,2.5,5.8,2.5s4.2-0.8,5.8-2.5
	C57.4,76.3,58.3,74.4,58.3,72.1z M31,34c0.1,0.7,0.4,1.2,0.9,1.6l5.5,4.1c0.5,0.4,1.1,0.5,1.7,0.4c0.6-0.1,1.1-0.4,1.5-0.8
	c1.7-2.2,3.1-3.8,4.3-4.5c1.4-0.9,3.2-1.4,5.2-1.4s3.9,0.5,5.5,1.6s2.5,2.4,2.5,4c0,1.2-0.5,2.2-1.4,3.2c-0.8,0.7-2.2,1.6-4.1,2.8
	l-0.4,0.2c-2.8,1.6-4.7,3-5.9,4.1c-2.1,2.1-3.1,4.7-3.1,7.7v1.8c0,0.7,0.2,1.2,0.7,1.7s1,0.7,1.7,0.7h9.1c0.7,0,1.2-0.2,1.7-0.7
	s0.7-1,0.7-1.7v-1.2c0-0.9,0.5-1.7,1.4-2.4c0.5-0.5,1.6-1.3,3.1-2.2c3-1.7,5.2-3.3,6.5-4.7c2.1-2.5,3.1-5.5,3.1-9.1
	c0-3.3-1-6.3-2.9-8.9s-4.4-4.7-7.6-6.3c-3.1-1.6-6.3-2.4-9.4-2.4c-4.5,0-8.3,0.9-11.4,2.7c-3.1,1.8-6,4.4-8.5,8
	C31,32.7,30.9,33.3,31,34z"/>
</svg>
