<?xml version="1.0" encoding="utf-8"?>
<!-- Generator: Adobe Illustrator 24.2.1, SVG Export Plug-In . SVG Version: 6.00 Build 0)  -->
<svg version="1.1" xmlns="http://www.w3.org/2000/svg" xmlns:xlink="http://www.w3.org/1999/xlink" x="0px" y="0px"
	 viewBox="0 0 100 100" style="enable-background:new 0 0 100 100;" xml:space="preserve">
<style type="text/css">
	.st0{fill:#0A69B3;}
	.st1{fill-rule:evenodd;clip-rule:evenodd;fill:#0A69B3;}
	.st2{clip-path:url(#SVGID_2_);}
	.st3{clip-path:url(#SVGID_4_);fill:#0A69B3;}
	.st4{fill:#2EC5F4;}
	.st5{fill-rule:evenodd;clip-rule:evenodd;fill:#0C6AB4;}
</style>
<g id="sheet">
	<g>
		<defs>
			<path id="SVGID_1_" d="M246.8-543c0.4-1,1.8-2.2,2.2-2.6C247.7-543.3,246.8-542.9,246.8-543z M258-547.9c2.6-0.2,3,0.4,2.7,0.6
				C260.7-547.3,260.3-546.9,258-547.9z M251-546.9c0.7-1.2,1.3-2.7,1.8-4c0.6,1.1,1.4,2,2.2,2.6C253.5-548,252.2-547.4,251-546.9z
				 M253-554c-0.3-1-0.3-3-0.1-3C253.4-557,253.3-554.6,253-554z M251-545.6c1.6-0.5,3.4-1.2,5-1.5c1.4,0.7,3,1.2,4.1,1.2
				c1.9,0,2.1-2.1,1.3-2.8c-0.9-0.9-3.4-0.6-4.7-0.5c-1.3-0.8-2.1-1.8-2.7-3.4c0.3-1.2,0.7-3,0.4-4.1c-0.3-1.9-2.8-1.7-3.1-0.4
				c-0.3,1.2,0,2.8,0.5,4.9c-0.7,1.8-1.8,4.1-2.6,5.5c-1.5,0.8-3.4,1.9-3.7,3.4C245.2-542.2,247.3-539.3,251-545.6z M263.9-562.8
				h-5.6v-5.6L263.9-562.8z M264.2-538.1H243v-30.5h11.7v7.6c0,1,0.8,1.8,1.8,1.8h7.6V-538.1z M264.2-534.6c1.9,0,3.5-1.6,3.5-3.5
				v-24.4c0-0.9-0.4-1.8-1-2.5l-6.2-6.2c-0.7-0.7-1.6-1-2.5-1h-15c-1.9,0-3.5,1.6-3.5,3.5v30.5c0,1.9,1.6,3.5,3.5,3.5H264.2z"/>
		</defs>
		<use xlink:href="#SVGID_1_"  style="overflow:visible;fill:#0A69B3;"/>
		<clipPath id="SVGID_2_">
			<use xlink:href="#SVGID_1_"  style="overflow:visible;"/>
		</clipPath>
		<g class="st2">
			<defs>
				<rect id="SVGID_3_" x="-408.8" y="-2117.7" width="2818.5" height="6219.5"/>
			</defs>
			<use xlink:href="#SVGID_3_"  style="overflow:visible;fill:#0A69B3;"/>
			<clipPath id="SVGID_4_">
				<use xlink:href="#SVGID_3_"  style="overflow:visible;"/>
			</clipPath>
		</g>
	</g>
</g>
<g id="icon-download">
</g>
<g id="icon-downloadcomplete">
</g>
<g id="icon-copy">
</g>
<g id="icon-bookmark">
</g>
<g id="icon-bookmarked">
</g>
<g id="icon-pdf">
</g>
<g id="icon-codesnippet">
</g>
<g id="icon-video">
</g>
<g id="icon-document-cardview">
	<g>
		<rect x="8.9" y="1" class="st4" width="9.3" height="9.3"/>
		<rect x="27.5" y="24.8" class="st0" width="45" height="7.9"/>
		<rect x="27.5" y="67.2" class="st0" width="45" height="7.9"/>
		<rect x="27.5" y="46" class="st0" width="45" height="7.9"/>
		<path class="st1" d="M72.5,98.9L13.7,99c-2.7,0-4.8-2.2-4.8-4.9V15.6h9.7v73.6l50-0.1l12.8-12.4V10.8h-58V1h62.8
			c2.7,0,4.8,2.2,4.8,4.9v75L72.5,98.9z"/>
	</g>
</g>
<g id="icon-pdf-cardview">
</g>
<g id="icon-code-cardview">
</g>
</svg>
