<?xml version="1.0" encoding="utf-8"?>
<!-- Generator: Adobe Illustrator 25.0.1, SVG Export Plug-In . SVG Version: 6.00 Build 0)  -->
<svg version="1.1" id="Layer_1" xmlns="http://www.w3.org/2000/svg" xmlns:xlink="http://www.w3.org/1999/xlink" x="0px" y="0px"
	 viewBox="0 0 16 16" style="enable-background:new 0 0 16 16;" xml:space="preserve">
<style type="text/css">
	.st0{fill-rule:evenodd;clip-rule:evenodd;fill:#808080;}
</style>
<g id="FINAL">
	<g id="L1-Communities-Home" transform="translate(-1221.000000, -693.000000)">
		<g id="Group-20" transform="translate(931.000000, 596.000000)">
			<g id="icon-thumbs" transform="translate(290.000000, 97.000000)">
				<g id="Group-5">
					<polygon id="Fill-1" class="st0" points="0,15.4 1.5,15.5 1.5,14 0,14 					"/>
					<path id="Fill-2" class="st0" d="M13.6,8.2c-0.1,0.2-0.3,0.3-0.5,0.4c0.1,0.1,0.2,0.3,0.3,0.6c0,0.3,0,0.5,0,0.8
						c-0.1,0.3-0.2,0.4-0.4,0.5c0.2,0.3,0.2,0.6,0.1,1c-0.1,0.3-0.3,0.6-0.5,0.7c0.1,0.7,0,1.2-0.3,1.5C12,13.8,11.6,14,11,14H9.9
						c-0.5,0-1-0.1-1.6-0.2C8,13.7,7.6,13.5,7,13.3c-0.4-0.2-0.8-0.3-1-0.3c-0.3-0.1-0.9-0.1-1.2-0.1V7.5c0.3,0,1-0.2,1.4-0.5
						c0.2-0.2,0.5-0.6,1-1.2c0.4-0.5,1.2-1.3,1.5-2C9,3.1,9,1.8,9.3,1.6c0.3-0.2,0.8,0,1,0.4c0.2,0.4,0.1,1.1,0,1.6
						C10.2,4,10,5.1,9.8,5.6C9.7,5.9,9.7,6.1,9.7,6.4h3c0.3,0,0.6,0.1,0.8,0.3c0.2,0.2,0.3,0.5,0.3,0.8C13.8,7.7,13.7,8,13.6,8.2
						 M15.5,7.1c0-0.6-0.2-1.1-0.6-1.6c-0.4-0.4-1-0.7-1.6-0.7h-2.1l0.1-0.1c0.2-0.4,0.3-0.7,0.4-0.9c0.1-0.4,0.2-0.8,0.2-1.1
						c0-0.9-0.2-1.6-0.6-2.1C10.8,0.2,10.1,0,9.3,0C8.6,0,8.1,0.7,7.8,2C7.8,2.4,7.6,2.9,7.6,3c-0.1,0.3-1.8,2.3-2,2.5
						C5.3,5.8,5.1,6.1,4.9,6.2c-0.1,0-0.1,0-0.2,0.1C4.5,5.9,4.2,5.8,3.9,5.8H1c-0.3,0-0.5,0.1-0.7,0.3C0.1,6.3,0,6.5,0,6.8v5.8h1.5
						V7.3h1.9v6.1V14v1.5h0.5c0.3,0,0.5-0.1,0.7-0.3s0.3-0.4,0.3-0.7v-0.3c0.2,0,0.4,0,0.7,0.1l0.9,0.3c0.7,0.3,1.3,0.4,1.8,0.5
						c0.7,0.2,1.4,0.3,2,0.3h1.2c0.9,0,1.6-0.2,2.1-0.7c0.5-0.5,0.7-1.2,0.7-2c0.2-0.3,0.4-0.6,0.5-0.9c0.1-0.4,0.1-0.7,0.1-1.1
						c0.2-0.3,0.3-0.6,0.3-1c0.1-0.4,0-0.7,0-1.1C15.3,8.2,15.5,7.7,15.5,7.1"/>
				</g>
			</g>
		</g>
	</g>
</g>
</svg>
