<?xml version="1.0" encoding="utf-8"?>
<!-- Generator: Adobe Illustrator 24.2.1, SVG Export Plug-In . SVG Version: 6.00 Build 0)  -->
<svg version="1.1" xmlns="http://www.w3.org/2000/svg" xmlns:xlink="http://www.w3.org/1999/xlink" x="0px" y="0px"
	 viewBox="0 0 100 100" style="enable-background:new 0 0 100 100;" xml:space="preserve">
<style type="text/css">
	.st0{fill:#0A69B3;}
	.st1{fill-rule:evenodd;clip-rule:evenodd;fill:#0A69B3;}
	.st2{clip-path:url(#SVGID_2_);}
	.st3{clip-path:url(#SVGID_4_);fill:#0A69B3;}
	.st4{fill:#2EC5F4;}
	.st5{fill-rule:evenodd;clip-rule:evenodd;fill:#0C6AB4;}
</style>
<g id="sheet">
	<g>
		<defs>
			<path id="SVGID_1_" d="M246.8-666.6c0.4-1,1.8-2.2,2.2-2.6C247.7-666.9,246.8-666.5,246.8-666.6z M258-671.5
				c2.6-0.2,3,0.4,2.7,0.6C260.7-670.9,260.3-670.5,258-671.5z M251-670.5c0.7-1.2,1.3-2.7,1.8-4c0.6,1.1,1.4,2,2.2,2.6
				C253.5-671.6,252.2-671,251-670.5z M253-677.6c-0.3-1-0.3-3-0.1-3C253.4-680.6,253.3-678.2,253-677.6z M251-669.2
				c1.6-0.5,3.4-1.2,5-1.5c1.4,0.7,3,1.2,4.1,1.2c1.9,0,2.1-2.1,1.3-2.8c-0.9-0.9-3.4-0.6-4.7-0.5c-1.3-0.8-2.1-1.8-2.7-3.4
				c0.3-1.2,0.7-3,0.4-4.1c-0.3-1.9-2.8-1.7-3.1-0.4c-0.3,1.2,0,2.8,0.5,4.9c-0.7,1.8-1.8,4.1-2.6,5.5c-1.5,0.8-3.4,1.9-3.7,3.4
				C245.2-665.8,247.3-662.9,251-669.2z M263.9-686.4h-5.6v-5.6L263.9-686.4z M264.2-661.7H243v-30.5h11.7v7.6c0,1,0.8,1.8,1.8,1.8
				h7.6V-661.7z M264.2-658.2c1.9,0,3.5-1.6,3.5-3.5v-24.4c0-0.9-0.4-1.8-1-2.5l-6.2-6.2c-0.7-0.7-1.6-1-2.5-1h-15
				c-1.9,0-3.5,1.6-3.5,3.5v30.5c0,1.9,1.6,3.5,3.5,3.5H264.2z"/>
		</defs>
		<use xlink:href="#SVGID_1_"  style="overflow:visible;fill:#0A69B3;"/>
		<clipPath id="SVGID_2_">
			<use xlink:href="#SVGID_1_"  style="overflow:visible;"/>
		</clipPath>
		<g class="st2">
			<defs>
				<rect id="SVGID_3_" x="-408.8" y="-2241.3" width="2818.5" height="6219.5"/>
			</defs>
			<use xlink:href="#SVGID_3_"  style="overflow:visible;fill:#0A69B3;"/>
			<clipPath id="SVGID_4_">
				<use xlink:href="#SVGID_3_"  style="overflow:visible;"/>
			</clipPath>
		</g>
	</g>
</g>
<g id="icon-download">
</g>
<g id="icon-downloadcomplete">
</g>
<g id="icon-copy">
</g>
<g id="icon-bookmark">
</g>
<g id="icon-bookmarked">
</g>
<g id="icon-pdf">
</g>
<g id="icon-codesnippet">
</g>
<g id="icon-video">
</g>
<g id="icon-document-cardview">
</g>
<g id="icon-pdf-cardview">
	<g>
		<rect x="8.9" y="2.3" class="st4" width="9.3" height="9.3"/>
		<path class="st1" d="M72.5,100.3l-58.7,0.1c-2.7,0-4.8-2.2-4.8-4.9V16.9h9.7v73.6l50-0.1l12.8-12.4V12.1h-58V2.3h62.8
			c2.7,0,4.8,2.2,4.8,4.9v75L72.5,100.3z"/>
	</g>
	<path class="st5" d="M68.8,61.8c-3.1,0-7.7-1.4-11.7-3.6c-4.7,0.8-10,2.7-14.8,4.3c-2.2,3.7-4,6.4-5.7,8.2c-5.5,6-10.2,1.9-9.6-1.2
		c0.8-4.2,6.9-7.5,10.6-9.5c2.2-3.9,5.5-10.9,7.6-16c-1.6-6-2.4-10.7-1.5-14c0.9-3.2,7.3-3.8,8.1,1.2c1,3.2-0.4,8.5-1.2,11.7
		c1.8,4.7,4.3,7.9,8.1,10.2c3.4-0.4,10.9-1.2,13.3,1.2C74,56.3,73.8,61.8,68.8,61.8 M37.2,63.1c-1.2,1.2-5.3,4.5-6.4,7.4
		C30.8,70.6,33.2,69.5,37.2,63.1 M54.4,55.1c-2.3-1.8-4.6-4.3-6.3-7.5c-1.4,3.7-3.2,7.9-5.2,11.5C46.2,57.8,50,56,54.4,55.1
		 M48.3,39c1-1.8,1.2-8.6-0.4-8.6C47.4,30.4,47.4,36,48.3,39 M62.7,56.4c6.8,2.9,7.9,1.6,7.9,1.6C71.3,57.6,70.1,55.9,62.7,56.4"/>
</g>
<g id="icon-code-cardview">
</g>
</svg>
