<?xml version="1.0" encoding="utf-8"?>
<!-- Generator: Adobe Illustrator 24.2.1, SVG Export Plug-In . SVG Version: 6.00 Build 0)  -->
<svg version="1.1" xmlns="http://www.w3.org/2000/svg" xmlns:xlink="http://www.w3.org/1999/xlink" x="0px" y="0px"
	 viewBox="0 0 125 100" style="enable-background:new 0 0 125 100;" xml:space="preserve">
<style type="text/css">
	.st0{fill:#0A69B3;}
	.st1{fill-rule:evenodd;clip-rule:evenodd;fill:#0A69B3;}
	.st2{clip-path:url(#SVGID_2_);}
	.st3{clip-path:url(#SVGID_4_);fill:#0A69B3;}
	.st4{fill:#2EC5F4;}
	.st5{fill-rule:evenodd;clip-rule:evenodd;fill:#0C6AB4;}
	.st6{fill:#FFFFFF;stroke:#000000;stroke-miterlimit:10;}
</style>
<g id="sheet">
	<g>
		<defs>
			<path id="SVGID_1_" d="M637.5,198.6c0.4-1,1.8-2.2,2.2-2.6C638.3,198.2,637.5,198.6,637.5,198.6z M648.6,193.7
				c2.6-0.2,3,0.4,2.7,0.6C651.3,194.3,650.9,194.7,648.6,193.7z M641.7,194.6c0.7-1.2,1.3-2.7,1.8-4c0.6,1.1,1.4,2,2.2,2.6
				C644.1,193.5,642.8,194.2,641.7,194.6z M643.6,187.6c-0.3-1-0.3-3-0.1-3C644,184.6,643.9,187,643.6,187.6z M641.6,196
				c1.6-0.5,3.4-1.2,5-1.5c1.4,0.7,3,1.2,4.1,1.2c1.9,0,2.1-2.1,1.3-2.8c-0.9-0.9-3.4-0.6-4.7-0.5c-1.3-0.8-2.1-1.8-2.7-3.4
				c0.3-1.2,0.7-3,0.4-4.1c-0.3-1.9-2.8-1.7-3.1-0.4c-0.3,1.2,0,2.8,0.5,4.9c-0.7,1.8-1.8,4.1-2.6,5.5c-1.5,0.8-3.4,1.9-3.7,3.4
				C635.8,199.4,637.9,202.3,641.6,196z M654.5,178.8h-5.6v-5.6L654.5,178.8z M654.8,203.4h-21.1v-30.5h11.7v7.6
				c0,1,0.8,1.8,1.8,1.8h7.6V203.4z M654.8,207c1.9,0,3.5-1.6,3.5-3.5v-24.4c0-0.9-0.4-1.8-1-2.5l-6.2-6.2c-0.7-0.7-1.6-1-2.5-1h-15
				c-1.9,0-3.5,1.6-3.5,3.5v30.5c0,1.9,1.6,3.5,3.5,3.5H654.8z"/>
		</defs>
		<use xlink:href="#SVGID_1_"  style="overflow:visible;fill:#0A69B3;"/>
		<clipPath id="SVGID_2_">
			<use xlink:href="#SVGID_1_"  style="overflow:visible;"/>
		</clipPath>
		<g class="st2">
			<defs>
				<rect id="SVGID_3_" x="-18.2" y="-1376.1" width="2818.5" height="6219.5"/>
			</defs>
			<use xlink:href="#SVGID_3_"  style="overflow:visible;fill:#0A69B3;"/>
			<clipPath id="SVGID_4_">
				<use xlink:href="#SVGID_3_"  style="overflow:visible;"/>
			</clipPath>
		</g>
	</g>
</g>
<g id="icon-download">
	<path class="st0" d="M101.2,63.2v23.5c0,5.2-4.2,9.4-9.4,9.4H35.4c-5.2,0-9.4-4.2-9.4-9.4V63.2h9.4v23.5h56.4V63.2H101.2z
		 M81.9,58.8l-6.6-6.6l-6.9,6.9V39.6h-9.4v20l-7.4-7.4l-6.6,6.6l18.5,18.5L81.9,58.8z M68.3,25.6h-9.4V35h9.4V25.6z"/>
</g>
<g id="icon-downloadcomplete">
</g>
<g id="icon-copy">
</g>
<g id="icon-bookmark">
</g>
<g id="icon-bookmarked">
</g>
<g id="icon-pdf">
</g>
<g id="icon-codesnippet">
</g>
<g id="icon-video">
</g>
<g id="icon-document-cardview">
</g>
<g id="icon-pdf-cardview">
</g>
<g id="icon-code-cardview">
</g>
</svg>
