<?xml version="1.0" encoding="utf-8"?>
<!-- Generator: Adobe Illustrator 24.2.1, SVG Export Plug-In . SVG Version: 6.00 Build 0)  -->
<svg version="1.1" xmlns="http://www.w3.org/2000/svg" xmlns:xlink="http://www.w3.org/1999/xlink" x="0px" y="0px"
	 viewBox="0 0 125 100" style="enable-background:new 0 0 125 100;" xml:space="preserve">
<style type="text/css">
	.st0{fill:#0A69B3;}
	.st1{fill-rule:evenodd;clip-rule:evenodd;fill:#0A69B3;}
	.st2{clip-path:url(#SVGID_2_);}
	.st3{clip-path:url(#SVGID_4_);fill:#0A69B3;}
	.st4{fill:#2EC5F4;}
	.st5{fill-rule:evenodd;clip-rule:evenodd;fill:#0C6AB4;}
	.st6{fill:#FFFFFF;stroke:#000000;stroke-miterlimit:10;}
</style>
<g id="sheet">
	<g>
		<defs>
			<path id="SVGID_1_" d="M637.5,75c0.4-1,1.8-2.2,2.2-2.6C638.3,74.7,637.5,75,637.5,75z M648.6,70.1c2.6-0.2,3,0.4,2.7,0.6
				C651.3,70.7,650.9,71.1,648.6,70.1z M641.7,71c0.7-1.2,1.3-2.7,1.8-4c0.6,1.1,1.4,2,2.2,2.6C644.1,69.9,642.8,70.6,641.7,71z
				 M643.6,64c-0.3-1-0.3-3-0.1-3C644,61,643.9,63.4,643.6,64z M641.6,72.4c1.6-0.5,3.4-1.2,5-1.5c1.4,0.7,3,1.2,4.1,1.2
				c1.9,0,2.1-2.1,1.3-2.8c-0.9-0.9-3.4-0.6-4.7-0.5c-1.3-0.8-2.1-1.8-2.7-3.4c0.3-1.2,0.7-3,0.4-4.1c-0.3-1.9-2.8-1.7-3.1-0.4
				c-0.3,1.2,0,2.8,0.5,4.9c-0.7,1.8-1.8,4.1-2.6,5.5c-1.5,0.8-3.4,1.9-3.7,3.4C635.8,75.8,637.9,78.7,641.6,72.4z M654.5,55.2h-5.6
				v-5.6L654.5,55.2z M654.8,79.8h-21.1V49.3h11.7v7.6c0,1,0.8,1.8,1.8,1.8h7.6V79.8z M654.8,83.4c1.9,0,3.5-1.6,3.5-3.5V55.5
				c0-0.9-0.4-1.8-1-2.5l-6.2-6.2c-0.7-0.7-1.6-1-2.5-1h-15c-1.9,0-3.5,1.6-3.5,3.5v30.5c0,1.9,1.6,3.5,3.5,3.5H654.8z"/>
		</defs>
		<use xlink:href="#SVGID_1_"  style="overflow:visible;fill:#0A69B3;"/>
		<clipPath id="SVGID_2_">
			<use xlink:href="#SVGID_1_"  style="overflow:visible;"/>
		</clipPath>
		<g class="st2">
			<defs>
				<rect id="SVGID_3_" x="-18.2" y="-1499.7" width="2818.5" height="6219.5"/>
			</defs>
			<use xlink:href="#SVGID_3_"  style="overflow:visible;fill:#0A69B3;"/>
			<clipPath id="SVGID_4_">
				<use xlink:href="#SVGID_3_"  style="overflow:visible;"/>
			</clipPath>
		</g>
	</g>
</g>
<g id="icon-download">
</g>
<g id="icon-downloadcomplete">
</g>
<g id="icon-copy">
</g>
<g id="icon-bookmark">
	<path class="st1" d="M30.8,11.6h63.4v66.3L61.3,53.1l-30.5,23V11.6z M20.2,1v96.2l41.2-31.1L104.8,99h0V1H20.2z"/>
</g>
<g id="icon-bookmarked">
</g>
<g id="icon-pdf">
</g>
<g id="icon-codesnippet">
</g>
<g id="icon-video">
</g>
<g id="icon-document-cardview">
</g>
<g id="icon-pdf-cardview">
</g>
<g id="icon-code-cardview">
</g>
</svg>
